# xmcd
#
# Track frame offsets:
#	150
#	18375
#	36797
#	61163
#
# Disc length: 1167 seconds
#
# Revision: 0
# Processed by: cddbd v1.5.2PL0 Copyright (c) Steve Scherf et al.
# Submitted via: EasyCDDAExtractor 16.0.6.1
#
DISCID=28048d04
DTITLE=堂本光一 - 妖~あやかし~
DYEAR=2009
DGENRE=
TTITLE0=妖~あやかし~
TTITLE1=Awaken Yourself
TTITLE2=Falling -2009-
TTITLE3=Peaceful World -2009-
EXTD=
EXTT0=
EXTT1=
EXTT2=
EXTT3=
PLAYORDER=
